# xmcd CD database file
#
# Track frame offsets:
#	150
#	83485
#	134146
#	183773
#	188441
#	205463
#	222202
#	239229
#	276480
#	296864
#
# Disc length: 4240 seconds
#
# Revision: 0
# Processed by: cddbd v1.5.2PL0 Copyright (c) Steve Scherf et al.
# Submitted via: CDex 1.51
#
DISCID=a2108e0a
DTITLE=Various Artist - Jazz At The Philharmonic Complete Live In Srockholm CD3
DYEAR=1960
DGENRE=Jazz
TTITLE0=Kush
TTITLE1=The Mooche
TTITLE2=Wheatlleigh Hall
TTITLE3=Announcement by Norman Granz
TTITLE4=Undecided
TTITLE5=Embaraceable You
TTITLE6=School Days
TTITLE7=Lester Leaps In 
TTITLE8=Moonlight In Vermont
TTITLE9=BugleCall Rag
EXTD=YEAR: 1960
EXTT0=
EXTT1=
EXTT2=
EXTT3=
EXTT4=
EXTT5=
EXTT6=
EXTT7=
EXTT8=
EXTT9=
PLAYORDER=
